<?xml version="1.0" encoding="UTF-8"?>
<svg width="279px" height="324px" viewBox="0 0 279 324" version="1.1" xmlns="http://www.w3.org/2000/svg" xmlns:xlink="http://www.w3.org/1999/xlink">
    <!-- Generator: Sketch 50.2 (55047) - http://www.bohemiancoding.com/sketch -->
    <title>icon</title>
    <desc>Created with Sketch.</desc>
    <defs></defs>
    <g id="Page-1" stroke="none" stroke-width="1" fill="none" fill-rule="evenodd">
        <g id="icon" transform="translate(-24.000000, -1.000000)">
            <rect id="Rectangle-2" x="0" y="0" width="326" height="326"></rect>
            <path d="M39.9700123,14.2509785 L163.519567,82.7719183 L286.672338,14.2574196 C287.637585,13.7204166 288.855399,14.0675769 289.392402,15.0328237 C289.557841,15.3301947 289.644668,15.6648605 289.644668,16.0051537 L289.644668,231.872031 C259.507984,236.245577 238.927925,242.150718 227.904491,249.587453 C217.055678,256.906384 196.09674,277.582422 165.027678,311.615567 C164.282959,312.431324 163.017944,312.48892 162.202182,311.744206 C162.147379,311.694176 162.095402,311.641134 162.046494,311.585327 C134.337138,279.967708 113.260217,259.30175 98.8157308,249.587453 C84.1163569,239.701739 63.5111133,233.796598 37,231.872031 L37,16 C37,14.8954305 37.8954305,14 39,14 C39.3393951,14 39.6732077,14.0863698 39.9700123,14.2509785 Z M45.4444501,147.941624 C67.2830644,151.407563 81.5271434,154.539105 88.1766873,157.336248 C118.381844,170.042104 127.2625,186.867967 136.197652,199.040577 C148.219205,215.417878 157.517687,252.362766 164.093099,309.875242 C168.125467,254.017753 176.877234,217.072864 190.3484,199.040577 C197.541306,189.412268 218.438649,166.296078 235.89098,157.336248 C245.465752,152.420668 260.487412,149.509762 280.955958,148.603529 L280.955956,148.60348 C281.507673,148.579053 281.935127,148.111996 281.9107,147.560278 C281.894874,147.202833 281.689272,146.881082 281.371549,146.716551 L164.093099,85.9847346 L45.1503552,146.061405 C44.6573904,146.310396 44.4596105,146.91187 44.7086016,147.404835 C44.8534281,147.69157 45.1271866,147.891272 45.4444501,147.941624 Z" id="Combined-Shape" stroke="#E9705C" stroke-width="25"></path>
        </g>
    </g>
</svg>